<svg fill="none" xmlns="http://www.w3.org/2000/svg">

    <g id="logo">
        <path d="M16.665 66.4449C13.585 66.4449 11.2567 65.6749 9.68 64.1349C8.10333 62.5949 7.315 60.3766 7.315 57.4799V46.1499C7.315 45.2332 7.095 44.5732 6.655 44.1699C6.215 43.7299 5.61 43.5099 4.84 43.5099H3.025V37.8999H4.84C5.61 37.8999 6.215 37.6799 6.655 37.2399C7.095 36.7999 7.315 36.1399 7.315 35.2599V23.9299C7.315 20.9966 8.10333 18.7782 9.68 17.2749C11.2567 15.7349 13.585 14.9649 16.665 14.9649H19.415V20.4649H18.26C16.9033 20.4649 15.8767 20.8316 15.18 21.5649C14.52 22.2982 14.19 23.3249 14.19 24.6449V35.0949C14.19 36.5616 14.0067 37.6982 13.64 38.5049C13.2733 39.3116 12.6867 39.9166 11.88 40.3199C11.11 40.6866 10.1017 40.9616 8.855 41.1449V40.2649C10.1017 40.4116 11.11 40.6866 11.88 41.0899C12.6867 41.4932 13.2733 42.0982 13.64 42.9049C14.0067 43.7116 14.19 44.8482 14.19 46.3149V56.7649C14.19 58.0849 14.52 59.1116 15.18 59.8449C15.8767 60.5782 16.9033 60.9449 18.26 60.9449H19.415V66.4449H16.665ZM84.8422 66.4449H82.0922V60.9449H83.2472C84.6406 60.9449 85.6672 60.5782 86.3272 59.8449C87.0239 59.1116 87.3722 58.0849 87.3722 56.7649V46.3149C87.3722 44.8482 87.5556 43.7116 87.9222 42.9049C88.3256 42.0982 88.9122 41.4932 89.6822 41.0899C90.4522 40.6866 91.4422 40.4116 92.6522 40.2649V41.1449C91.4422 40.9616 90.4522 40.6866 89.6822 40.3199C88.9122 39.9166 88.3256 39.3116 87.9222 38.5049C87.5556 37.6982 87.3722 36.5616 87.3722 35.0949V24.6449C87.3722 23.3249 87.0239 22.2982 86.3272 21.5649C85.6672 20.8316 84.6406 20.4649 83.2472 20.4649H82.0922V14.9649H84.8422C87.9589 14.9649 90.3056 15.7349 91.8822 17.2749C93.4589 18.7782 94.2472 20.9966 94.2472 23.9299V35.2599C94.2472 36.1399 94.4672 36.7999 94.9072 37.2399C95.3472 37.6799 95.9339 37.8999 96.6672 37.8999H98.5372V43.5099H96.6672C95.9339 43.5099 95.3472 43.7299 94.9072 44.1699C94.4672 44.5732 94.2472 45.2332 94.2472 46.1499V57.4799C94.2472 60.3766 93.4589 62.5949 91.8822 64.1349C90.3056 65.6749 87.9589 66.4449 84.8422 66.4449Z" fill="#1F2626"/>
        <path d="M56.8719 67.7998L40.0419 29.2998H47.7969L62.8119 64.1148H58.3569L73.5369 29.2998H80.6869L63.9119 67.7998H56.8719Z" fill="#5222D0"/>
        <path d="M22.8702 53V14.5H30.0202V46.95H50.1502V53H22.8702Z" fill="#5222D0"/>
        <path d="M11.504 101.243V90.0432H16.4C17.616 90.0432 18.6827 90.2778 19.6 90.7472C20.5173 91.2165 21.232 91.8672 21.744 92.6992C22.256 93.5312 22.512 94.5125 22.512 95.6432C22.512 96.7632 22.256 97.7445 21.744 98.5872C21.232 99.4192 20.5173 100.07 19.6 100.539C18.6827 101.008 17.616 101.243 16.4 101.243H11.504ZM13.584 99.4832H16.304C17.1467 99.4832 17.872 99.3232 18.48 99.0032C19.0987 98.6832 19.5733 98.2352 19.904 97.6592C20.2453 97.0832 20.416 96.4112 20.416 95.6432C20.416 94.8645 20.2453 94.1925 19.904 93.6272C19.5733 93.0512 19.0987 92.6032 18.48 92.2832C17.872 91.9632 17.1467 91.8032 16.304 91.8032H13.584V99.4832ZM28.5468 101.355C27.5974 101.355 26.7654 101.168 26.0508 100.795C25.3468 100.411 24.7974 99.8885 24.4028 99.2272C24.0188 98.5658 23.8268 97.8138 23.8268 96.9712C23.8268 96.1178 24.0134 95.3658 24.3868 94.7152C24.7708 94.0538 25.2934 93.5365 25.9548 93.1632C26.6268 92.7898 27.3894 92.6032 28.2428 92.6032C29.0748 92.6032 29.8161 92.7845 30.4668 93.1472C31.1174 93.5098 31.6294 94.0218 32.0028 94.6832C32.3761 95.3445 32.5628 96.1232 32.5628 97.0192C32.5628 97.1045 32.5574 97.2005 32.5468 97.3072C32.5468 97.4138 32.5414 97.5152 32.5308 97.6112H25.4108V96.2832H31.4748L30.6908 96.6992C30.7014 96.2085 30.6001 95.7765 30.3868 95.4032C30.1734 95.0298 29.8801 94.7365 29.5068 94.5232C29.1441 94.3098 28.7228 94.2032 28.2428 94.2032C27.7521 94.2032 27.3201 94.3098 26.9468 94.5232C26.5841 94.7365 26.2961 95.0352 26.0828 95.4192C25.8801 95.7925 25.7788 96.2352 25.7788 96.7472V97.0672C25.7788 97.5792 25.8961 98.0325 26.1308 98.4272C26.3654 98.8218 26.6961 99.1258 27.1228 99.3392C27.5494 99.5525 28.0401 99.6592 28.5948 99.6592C29.0748 99.6592 29.5068 99.5845 29.8908 99.4352C30.2748 99.2858 30.6161 99.0512 30.9148 98.7312L31.9868 99.9632C31.6028 100.411 31.1174 100.758 30.5308 101.003C29.9548 101.238 29.2934 101.355 28.5468 101.355ZM36.5996 101.243L32.9356 92.6992H35.0156L38.1676 100.235H37.1436L40.4076 92.6992H42.3276L38.6636 101.243H36.5996ZM47.3593 101.355C46.4099 101.355 45.5779 101.168 44.8633 100.795C44.1593 100.411 43.6099 99.8885 43.2153 99.2272C42.8313 98.5658 42.6393 97.8138 42.6393 96.9712C42.6393 96.1178 42.8259 95.3658 43.1993 94.7152C43.5833 94.0538 44.1059 93.5365 44.7673 93.1632C45.4393 92.7898 46.2019 92.6032 47.0553 92.6032C47.8873 92.6032 48.6286 92.7845 49.2793 93.1472C49.9299 93.5098 50.4419 94.0218 50.8153 94.6832C51.1886 95.3445 51.3753 96.1232 51.3753 97.0192C51.3753 97.1045 51.3699 97.2005 51.3593 97.3072C51.3593 97.4138 51.3539 97.5152 51.3433 97.6112H44.2233V96.2832H50.2873L49.5033 96.6992C49.5139 96.2085 49.4126 95.7765 49.1993 95.4032C48.9859 95.0298 48.6926 94.7365 48.3193 94.5232C47.9566 94.3098 47.5353 94.2032 47.0553 94.2032C46.5646 94.2032 46.1326 94.3098 45.7593 94.5232C45.3966 94.7365 45.1086 95.0352 44.8953 95.4192C44.6926 95.7925 44.5913 96.2352 44.5913 96.7472V97.0672C44.5913 97.5792 44.7086 98.0325 44.9433 98.4272C45.1779 98.8218 45.5086 99.1258 45.9353 99.3392C46.3619 99.5525 46.8526 99.6592 47.4073 99.6592C47.8873 99.6592 48.3193 99.5845 48.7033 99.4352C49.0873 99.2858 49.4286 99.0512 49.7273 98.7312L50.7993 99.9632C50.4153 100.411 49.9299 100.758 49.3433 101.003C48.7673 101.238 48.1059 101.355 47.3593 101.355ZM53.2964 101.243V89.3712H55.2964V101.243H53.2964ZM61.7614 101.355C60.8867 101.355 60.108 101.168 59.4254 100.795C58.7427 100.411 58.204 99.8885 57.8094 99.2272C57.4147 98.5658 57.2174 97.8138 57.2174 96.9712C57.2174 96.1178 57.4147 95.3658 57.8094 94.7152C58.204 94.0538 58.7427 93.5365 59.4254 93.1632C60.108 92.7898 60.8867 92.6032 61.7614 92.6032C62.6467 92.6032 63.4307 92.7898 64.1134 93.1632C64.8067 93.5365 65.3454 94.0485 65.7294 94.6992C66.124 95.3498 66.3214 96.1072 66.3214 96.9712C66.3214 97.8138 66.124 98.5658 65.7294 99.2272C65.3454 99.8885 64.8067 100.411 64.1134 100.795C63.4307 101.168 62.6467 101.355 61.7614 101.355ZM61.7614 99.6432C62.252 99.6432 62.6894 99.5365 63.0734 99.3232C63.4574 99.1098 63.756 98.8005 63.9694 98.3952C64.1934 97.9898 64.3054 97.5152 64.3054 96.9712C64.3054 96.4165 64.1934 95.9418 63.9694 95.5472C63.756 95.1418 63.4574 94.8325 63.0734 94.6192C62.6894 94.4058 62.2574 94.2992 61.7774 94.2992C61.2867 94.2992 60.8494 94.4058 60.4654 94.6192C60.092 94.8325 59.7934 95.1418 59.5694 95.5472C59.3454 95.9418 59.2334 96.4165 59.2334 96.9712C59.2334 97.5152 59.3454 97.9898 59.5694 98.3952C59.7934 98.8005 60.092 99.1098 60.4654 99.3232C60.8494 99.5365 61.2814 99.6432 61.7614 99.6432ZM72.9699 101.355C72.2765 101.355 71.6419 101.195 71.0659 100.875C70.5005 100.555 70.0472 100.075 69.7059 99.4352C69.3752 98.7845 69.2099 97.9632 69.2099 96.9712C69.2099 95.9685 69.3699 95.1472 69.6899 94.5072C70.0205 93.8672 70.4685 93.3925 71.0339 93.0832C71.5992 92.7632 72.2445 92.6032 72.9699 92.6032C73.8125 92.6032 74.5539 92.7845 75.1939 93.1472C75.8445 93.5098 76.3565 94.0165 76.7299 94.6672C77.1139 95.3178 77.3059 96.0858 77.3059 96.9712C77.3059 97.8565 77.1139 98.6298 76.7299 99.2912C76.3565 99.9418 75.8445 100.448 75.1939 100.811C74.5539 101.174 73.8125 101.355 72.9699 101.355ZM68.2339 104.347V92.6992H70.1379V94.7152L70.0739 96.9872L70.2339 99.2592V104.347H68.2339ZM72.7459 99.6432C73.2259 99.6432 73.6525 99.5365 74.0259 99.3232C74.4099 99.1098 74.7139 98.8005 74.9379 98.3952C75.1619 97.9898 75.2739 97.5152 75.2739 96.9712C75.2739 96.4165 75.1619 95.9418 74.9379 95.5472C74.7139 95.1418 74.4099 94.8325 74.0259 94.6192C73.6525 94.4058 73.2259 94.2992 72.7459 94.2992C72.2659 94.2992 71.8339 94.4058 71.4499 94.6192C71.0659 94.8325 70.7619 95.1418 70.5379 95.5472C70.3139 95.9418 70.2019 96.4165 70.2019 96.9712C70.2019 97.5152 70.3139 97.9898 70.5379 98.3952C70.7619 98.8005 71.0659 99.1098 71.4499 99.3232C71.8339 99.5365 72.2659 99.6432 72.7459 99.6432ZM83.2186 101.355C82.2693 101.355 81.4373 101.168 80.7226 100.795C80.0186 100.411 79.4693 99.8885 79.0746 99.2272C78.6906 98.5658 78.4986 97.8138 78.4986 96.9712C78.4986 96.1178 78.6853 95.3658 79.0586 94.7152C79.4426 94.0538 79.9653 93.5365 80.6266 93.1632C81.2986 92.7898 82.0613 92.6032 82.9146 92.6032C83.7466 92.6032 84.488 92.7845 85.1386 93.1472C85.7893 93.5098 86.3013 94.0218 86.6746 94.6832C87.048 95.3445 87.2346 96.1232 87.2346 97.0192C87.2346 97.1045 87.2293 97.2005 87.2186 97.3072C87.2186 97.4138 87.2133 97.5152 87.2026 97.6112H80.0826V96.2832H86.1466L85.3626 96.6992C85.3733 96.2085 85.272 95.7765 85.0586 95.4032C84.8453 95.0298 84.552 94.7365 84.1786 94.5232C83.816 94.3098 83.3946 94.2032 82.9146 94.2032C82.424 94.2032 81.992 94.3098 81.6186 94.5232C81.256 94.7365 80.968 95.0352 80.7546 95.4192C80.552 95.7925 80.4506 96.2352 80.4506 96.7472V97.0672C80.4506 97.5792 80.568 98.0325 80.8026 98.4272C81.0373 98.8218 81.368 99.1258 81.7946 99.3392C82.2213 99.5525 82.712 99.6592 83.2666 99.6592C83.7466 99.6592 84.1786 99.5845 84.5626 99.4352C84.9466 99.2858 85.288 99.0512 85.5866 98.7312L86.6586 99.9632C86.2746 100.411 85.7893 100.758 85.2026 101.003C84.6266 101.238 83.9653 101.355 83.2186 101.355ZM89.1558 101.243V92.6992H91.0598V95.0512L90.8358 94.3632C91.0918 93.7872 91.4918 93.3498 92.0358 93.0512C92.5904 92.7525 93.2784 92.6032 94.0998 92.6032V94.5072C94.0144 94.4858 93.9344 94.4752 93.8598 94.4752C93.7851 94.4645 93.7104 94.4592 93.6358 94.4592C92.8784 94.4592 92.2758 94.6832 91.8278 95.1312C91.3798 95.5685 91.1558 96.2245 91.1558 97.0992V101.243H89.1558Z" fill="#1F2626"/>
        <path d="M13.408 77.952H18.992V79.712H13.408V77.952ZM13.584 84H11.504V72.8H19.68V74.544H13.584V84ZM21.3433 84V75.456H23.2473V77.808L23.0233 77.12C23.2793 76.544 23.6793 76.1067 24.2233 75.808C24.7779 75.5093 25.4659 75.36 26.2873 75.36V77.264C26.2019 77.2427 26.1219 77.232 26.0473 77.232C25.9726 77.2213 25.8979 77.216 25.8233 77.216C25.0659 77.216 24.4633 77.44 24.0153 77.888C23.5673 78.3253 23.3433 78.9813 23.3433 79.856V84H21.3433ZM31.7458 84.112C30.8711 84.112 30.0924 83.9253 29.4098 83.552C28.7271 83.168 28.1884 82.6453 27.7938 81.984C27.3991 81.3227 27.2018 80.5707 27.2018 79.728C27.2018 78.8747 27.3991 78.1227 27.7938 77.472C28.1884 76.8107 28.7271 76.2933 29.4098 75.92C30.0924 75.5467 30.8711 75.36 31.7458 75.36C32.6311 75.36 33.4151 75.5467 34.0978 75.92C34.7911 76.2933 35.3298 76.8053 35.7138 77.456C36.1084 78.1067 36.3058 78.864 36.3058 79.728C36.3058 80.5707 36.1084 81.3227 35.7138 81.984C35.3298 82.6453 34.7911 83.168 34.0978 83.552C33.4151 83.9253 32.6311 84.112 31.7458 84.112ZM31.7458 82.4C32.2364 82.4 32.6738 82.2933 33.0578 82.08C33.4418 81.8667 33.7404 81.5573 33.9538 81.152C34.1778 80.7467 34.2898 80.272 34.2898 79.728C34.2898 79.1733 34.1778 78.6987 33.9538 78.304C33.7404 77.8987 33.4418 77.5893 33.0578 77.376C32.6738 77.1627 32.2418 77.056 31.7618 77.056C31.2711 77.056 30.8338 77.1627 30.4498 77.376C30.0764 77.5893 29.7778 77.8987 29.5538 78.304C29.3298 78.6987 29.2178 79.1733 29.2178 79.728C29.2178 80.272 29.3298 80.7467 29.5538 81.152C29.7778 81.5573 30.0764 81.8667 30.4498 82.08C30.8338 82.2933 31.2658 82.4 31.7458 82.4ZM43.0663 75.36C43.7489 75.36 44.3569 75.4933 44.8903 75.76C45.4343 76.0267 45.8609 76.4373 46.1703 76.992C46.4796 77.536 46.6343 78.24 46.6343 79.104V84H44.6343V79.36C44.6343 78.6027 44.4529 78.0373 44.0903 77.664C43.7383 77.2907 43.2423 77.104 42.6023 77.104C42.1329 77.104 41.7169 77.2 41.3543 77.392C40.9916 77.584 40.7089 77.872 40.5063 78.256C40.3143 78.6293 40.2183 79.104 40.2183 79.68V84H38.2183V75.456H40.1223V77.76L39.7863 77.056C40.0849 76.512 40.5169 76.096 41.0823 75.808C41.6583 75.5093 42.3196 75.36 43.0663 75.36ZM52.3874 84.112C51.4487 84.112 50.7234 83.872 50.2114 83.392C49.6994 82.9013 49.4434 82.1813 49.4434 81.232V73.568H51.4434V81.184C51.4434 81.5893 51.5447 81.904 51.7474 82.128C51.9607 82.352 52.254 82.464 52.6274 82.464C53.0754 82.464 53.4487 82.3467 53.7474 82.112L54.3074 83.536C54.0727 83.728 53.7847 83.872 53.4434 83.968C53.102 84.064 52.75 84.112 52.3874 84.112ZM48.0354 77.12V75.52H53.7314V77.12H48.0354ZM55.3644 80.384V78.72H59.7644V80.384H55.3644ZM64.0646 77.456H69.6326V79.168H64.0646V77.456ZM64.2246 82.256H70.5446V84H62.1446V72.8H70.3206V74.544H64.2246V82.256ZM77.5194 75.36C78.202 75.36 78.81 75.4933 79.3434 75.76C79.8874 76.0267 80.314 76.4373 80.6234 76.992C80.9327 77.536 81.0874 78.24 81.0874 79.104V84H79.0874V79.36C79.0874 78.6027 78.906 78.0373 78.5434 77.664C78.1914 77.2907 77.6954 77.104 77.0554 77.104C76.586 77.104 76.17 77.2 75.8074 77.392C75.4447 77.584 75.162 77.872 74.9594 78.256C74.7674 78.6293 74.6714 79.104 74.6714 79.68V84H72.6714V75.456H74.5754V77.76L74.2394 77.056C74.538 76.512 74.97 76.096 75.5354 75.808C76.1114 75.5093 76.7727 75.36 77.5194 75.36ZM87.2561 84.112C86.4348 84.112 85.6935 83.9307 85.0321 83.568C84.3815 83.1947 83.8695 82.6827 83.4961 82.032C83.1228 81.3813 82.9361 80.6133 82.9361 79.728C82.9361 78.8427 83.1228 78.0747 83.4961 77.424C83.8695 76.7733 84.3815 76.2667 85.0321 75.904C85.6935 75.5413 86.4348 75.36 87.2561 75.36C87.9708 75.36 88.6108 75.52 89.1761 75.84C89.7415 76.1493 90.1895 76.624 90.5201 77.264C90.8508 77.904 91.0161 78.7253 91.0161 79.728C91.0161 80.72 90.8561 81.5413 90.5361 82.192C90.2161 82.832 89.7735 83.312 89.2081 83.632C88.6428 83.952 87.9921 84.112 87.2561 84.112ZM87.4961 82.4C87.9761 82.4 88.4028 82.2933 88.7761 82.08C89.1601 81.8667 89.4641 81.5573 89.6881 81.152C89.9228 80.7467 90.0401 80.272 90.0401 79.728C90.0401 79.1733 89.9228 78.6987 89.6881 78.304C89.4641 77.8987 89.1601 77.5893 88.7761 77.376C88.4028 77.1627 87.9761 77.056 87.4961 77.056C87.0161 77.056 86.5841 77.1627 86.2001 77.376C85.8268 77.5893 85.5228 77.8987 85.2881 78.304C85.0641 78.6987 84.9521 79.1733 84.9521 79.728C84.9521 80.272 85.0641 80.7467 85.2881 81.152C85.5228 81.5573 85.8268 81.8667 86.2001 82.08C86.5841 82.2933 87.0161 82.4 87.4961 82.4ZM90.0881 84V81.984L90.1681 79.712L90.0081 77.44V72.128H91.9921V84H90.0881Z" fill="#1F2626"/>
    </g>

    <!--Skills-->
    <g id="html">
        <path d="M22.1323 102.004L13.7061 7.5H106.294L97.856 101.989L59.9436 112.5L22.1323 102.004Z" fill="#E44F26"/>
        <path d="M60 104.468L90.6375 95.9738L97.845 15.2288H60V104.468Z" fill="#F1662A"/>
        <path d="M60 50.2762H44.6625L43.605 38.4075H60V26.8162H30.9375L31.215 29.9287L34.0613 61.8675H60V50.2762ZM60 80.3775L59.9475 80.3925L47.04 76.9087L46.215 67.665H34.5787L36.2025 85.86L59.9475 92.4525L60 92.4375V80.3775Z"
              fill="#EBEBEB"/>
        <path d="M59.959 50.2762V61.8675H74.2315L72.889 76.9012L59.959 80.3887V92.4487L83.7227 85.86L83.8952 83.9025L86.6177 53.3887L86.9027 50.2762H59.959ZM59.959 26.8162V38.4075H87.9565L88.189 35.805L88.7177 29.9287L88.9952 26.8162H59.959Z"
              fill="white"/>
    </g>

    <g id="css3">
        <path d="M22.1325 101.154L13.71 7.4375H106.29L97.8562 101.139L59.9437 111.562L22.1325 101.154Z" fill="#1572B6"/>
        <path d="M60 103.597L90.6375 95.174L97.845 15.1019H60V103.597Z" fill="#33A9DC"/>
        <path d="M60 49.054H75.3375L76.395 37.2842H60V25.7896H89.0625L88.785 28.8724L85.9387 60.5487H60V49.054Z"
              fill="white"/>
        <path d="M60.0711 78.9045L60.0186 78.9193L47.1112 75.4609L46.2862 66.2942H34.6499L36.2737 84.3413L60.0149 90.8788L60.0711 90.864V78.9045Z"
              fill="#EBEBEB"/>
        <path d="M74.3513 60.0615L72.9563 75.4534L60.03 78.9119V90.8714L83.79 84.3412L83.9663 82.4001L85.98 60.0615H74.3513Z"
              fill="white"/>
        <path d="M60.0411 25.7896V37.2842H32.0436L31.8111 34.6997L31.2824 28.8724L31.0049 25.7896H60.0411ZM59.9999 49.054V60.5487H47.2536L47.0211 57.9642L46.4961 52.1369L46.2186 49.054H59.9999Z"
              fill="#EBEBEB"/>
    </g>

    <g id="js">
        <path d="M7.5 7.5H112.5V112.5H7.5V7.5Z" fill="#F5DE19"/>
        <path d="M78.0338 89.5312C78.9284 91.3485 80.3183 92.8759 82.0434 93.9375C83.7684 94.9991 85.7584 95.5515 87.7838 95.5313C91.8713 95.5313 94.485 93.4875 94.485 90.6562C94.485 87.2812 91.8 86.0738 87.3 84.105L84.8325 83.0475C77.7075 80.0138 72.9825 76.215 72.9825 68.1825C72.9825 60.7838 78.6075 55.1475 87.4313 55.1475C90.2877 54.9412 93.1416 55.5805 95.637 56.9856C98.1324 58.3907 100.159 60.4994 101.464 63.0488L93.75 67.98C93.2476 66.716 92.3728 65.6345 91.2416 64.879C90.1105 64.1236 88.7764 63.7298 87.4163 63.75C86.8229 63.6906 86.2236 63.7555 85.6567 63.9404C85.0897 64.1254 84.5675 64.4265 84.1234 64.8244C83.6792 65.2224 83.3228 65.7085 83.0769 66.2518C82.831 66.7951 82.7009 67.3837 82.695 67.98C82.695 70.9388 84.5288 72.1388 88.7625 73.98L91.23 75.0375C99.615 78.6338 104.355 82.2975 104.355 90.5363C104.355 99.42 97.3763 104.287 88.005 104.287C84.3537 104.52 80.713 103.691 77.5223 101.901C74.3317 100.11 71.7274 97.4342 70.0238 94.1963L78.0338 89.5312ZM43.1775 90.3863C44.7263 93.135 46.1363 95.46 49.5263 95.46C52.7663 95.46 54.8138 94.1925 54.8138 89.2612V55.71H64.68V89.3925C64.68 99.6075 58.68 104.257 49.9463 104.257C46.8591 104.426 43.7931 103.657 41.1513 102.051C38.5096 100.444 36.4157 98.0761 35.145 95.2575L43.1775 90.3863Z"
              fill="black"/>
    </g>

    <g id="ts">
        <path d="M0 60V120H60H120V60V0H60H0V60Z" fill="#007ACC"/>
        <path d="M26.5373 60.3979L26.4992 65.3122H34.3087H42.1182L42.1182 87.5026V109.693H47.6421H53.1659V87.5026L53.1659 65.3122H60.9754H68.7849V60.4931C68.7849 57.8264 68.7278 55.5979 68.6516 55.5407C68.5944 55.4645 59.0897 55.4264 47.5659 55.4455L26.5944 55.5026L26.5373 60.3979Z"
              fill="white"/>
        <path d="M96.8265 55.3636C99.8741 56.1255 102.198 57.4779 104.331 59.6874C105.436 60.8684 107.074 63.0208 107.207 63.535C107.246 63.6874 102.026 67.1922 98.8646 69.1541C98.7503 69.2303 98.2931 68.7351 97.7789 67.9731C96.236 65.7255 94.6169 64.7541 92.1408 64.5827C88.5027 64.335 86.1598 66.2398 86.1789 69.4208C86.1789 70.3541 86.3122 70.9065 86.6931 71.6684C87.4931 73.3255 88.9789 74.316 93.6455 76.3351C102.236 80.0303 105.912 82.4684 108.198 85.935C110.75 89.8017 111.322 95.9731 109.588 100.564C107.684 105.554 102.96 108.945 96.3122 110.068C94.255 110.43 89.3789 110.373 87.1693 109.973C82.3503 109.116 77.7789 106.735 74.9598 103.611C73.855 102.392 71.7027 99.2112 71.836 98.9827C71.8931 98.9065 72.3884 98.6017 72.9408 98.2779C73.4741 97.9731 75.4931 96.8112 77.3979 95.7065L80.8455 93.7065L81.5693 94.7731C82.5789 96.316 84.7884 98.4303 86.1217 99.135C89.9503 101.154 95.2074 100.868 97.7979 98.5446C98.9027 97.535 99.3598 96.4874 99.3598 94.9446C99.3598 93.5541 99.1884 92.9446 98.4646 91.897C97.5312 90.5636 95.6265 89.4398 90.2169 87.097C84.0265 84.4303 81.3598 82.7731 78.9217 80.1446C77.5122 78.6208 76.1789 76.1827 75.6265 74.1446C75.1693 72.4493 75.055 68.2017 75.4169 66.4874C76.6931 60.5065 81.2074 56.335 87.7217 55.097C89.836 54.697 94.7503 54.8493 96.8265 55.3636Z"
              fill="white"/>
    </g>

    <g id="react">
        <path d="M0 59.7974C0 69.273 8.84919 78.1189 22.8007 83.1049C20.0147 97.7701 22.3014 109.59 29.9391 114.196C37.79 118.93 49.4858 115.653 60.5867 105.507C71.4076 115.243 82.3439 119.075 89.9746 114.456C97.8178 109.709 100.203 97.087 97.3404 81.964C111.872 76.9405 120 69.3977 120 59.7974C120 50.5414 111.134 42.5338 97.3711 37.5796C100.453 21.8316 97.8416 10.2984 89.8877 5.50237C82.2193 0.878721 71.156 4.9087 60.176 14.9001C48.7532 4.29502 37.799 1.05714 29.8528 5.86712C22.1918 10.5039 20.0057 22.5388 22.8007 37.4756C9.32028 42.39 0 50.5784 0 59.7974Z"
              fill="white"/>
        <path d="M94.4565 42.4993C93.351 42.1014 92.2054 41.7249 91.0259 41.3689C91.2198 40.5416 91.3977 39.725 91.5559 38.9223C94.1528 25.7416 92.4549 15.1232 86.6569 11.6271C81.0973 8.27488 72.005 11.7701 62.8223 20.1261C61.9393 20.9296 61.0538 21.7803 60.1687 22.6718C59.5789 22.0819 58.9901 21.5119 58.4028 20.9666C48.779 12.032 39.1327 8.26675 33.3404 11.7729C27.7861 15.1349 26.1413 25.1172 28.4789 37.6087C28.7046 38.8152 28.9685 40.0473 29.2669 41.3001C27.9016 41.7053 26.5836 42.1373 25.3226 42.5969C14.0397 46.71 6.83398 53.1562 6.83398 59.8427C6.83398 66.7485 14.5693 73.6751 26.3213 77.8751C27.2487 78.2065 28.211 78.5199 29.2028 78.8174C28.8808 80.1723 28.6009 81.5 28.3658 82.7951C26.1369 95.0697 27.8776 104.816 33.417 108.157C39.1388 111.607 48.7415 108.061 58.0921 99.5144C58.8311 98.8389 59.5729 98.1224 60.3159 97.3715C61.279 98.3412 62.2405 99.259 63.197 100.12C72.2541 108.269 81.1995 111.56 86.7339 108.21C92.4499 104.75 94.3076 94.2799 91.8958 81.5413C91.7116 80.5684 91.4973 79.5745 91.2566 78.5629C91.9309 78.3545 92.593 78.1393 93.2385 77.9155C105.456 73.683 113.405 66.8407 113.405 59.8427C113.405 53.132 105.967 46.6423 94.4565 42.4993Z"
              fill="#53C1DE"/>
        <path d="M91.8052 73.3971C91.2225 73.5988 90.6246 73.7938 90.0153 73.9828C88.6665 69.5183 86.8462 64.7708 84.6187 59.8659C86.7444 55.0779 88.4943 50.3912 89.8053 45.9555C90.8955 46.2854 91.9536 46.6333 92.9732 47.0004C102.835 50.5502 108.851 55.7987 108.851 59.8427C108.851 64.1504 102.354 69.7424 91.8052 73.3971ZM87.4282 82.4659C88.4947 88.0987 88.647 93.1914 87.9406 97.1726C87.3059 100.75 86.0294 103.135 84.4512 104.09C81.0926 106.123 73.9104 103.481 66.1646 96.5114C65.2766 95.7124 64.3822 94.8593 63.485 93.9565C66.4878 90.5225 69.489 86.5304 72.4181 82.0968C77.57 81.6188 82.4374 80.8373 86.8514 79.7704C87.0688 80.6873 87.2619 81.5866 87.4282 82.4659ZM43.1649 103.739C39.8836 104.951 37.2702 104.985 35.6904 104.033C32.3288 102.006 30.9313 94.1802 32.8376 83.6829C33.0559 82.4808 33.3158 81.2459 33.6153 79.9836C37.9809 80.993 42.8126 81.7193 47.9769 82.1571C50.9257 86.4955 54.0135 90.4832 57.1253 93.9749C56.4454 94.6612 55.7682 95.3145 55.0948 95.9302C50.96 99.7093 46.8165 102.391 43.1649 103.739ZM27.7923 73.3707C22.5958 71.5136 18.3043 69.0999 15.3627 66.4661C12.7195 64.0992 11.385 61.7494 11.385 59.8427C11.385 55.7852 17.1705 50.6097 26.8197 47.0921C27.9905 46.6652 29.2161 46.263 30.488 45.8851C31.8216 50.4209 33.5709 55.1632 35.682 59.9586C33.5436 64.8252 31.7694 69.643 30.4228 74.2319C29.516 73.9594 28.6375 73.6726 27.7923 73.3707ZM32.9453 36.6946C30.9425 25.9922 32.2726 17.9188 35.6198 15.8928C39.1851 13.7346 47.069 16.8118 55.3784 24.5264C55.9095 25.0195 56.4428 25.5356 56.9775 26.0696C53.8811 29.546 50.8215 33.5038 47.8989 37.8166C42.8868 38.3024 38.0891 39.0827 33.6779 40.1276C33.4006 38.9611 33.1549 37.815 32.9453 36.6946ZM78.9151 48.5634C77.8606 46.6589 76.778 44.7994 75.6744 42.9907C79.0746 43.4401 82.3325 44.0368 85.3919 44.7669C84.4734 47.8448 83.3285 51.063 81.981 54.362C81.0143 52.4431 79.9918 50.5082 78.9151 48.5634ZM60.1687 29.4716C62.2687 31.8504 64.3716 34.5062 66.44 37.3878C64.3557 37.2849 62.2455 37.2313 60.1179 37.2313C58.0104 37.2313 55.9158 37.2837 53.8443 37.3848C55.9148 34.53 58.036 31.8777 60.1687 29.4716ZM41.3023 48.5963C40.2489 50.5062 39.2454 52.4306 38.2939 54.3585C36.9682 51.0709 35.834 47.8381 34.9075 44.7165C37.9481 44.005 41.1906 43.4233 44.5692 42.9823C43.45 44.8077 42.3585 46.6809 41.3023 48.5959V48.5963ZM44.6665 77.0427C41.1758 76.6355 37.8846 76.0837 34.8447 75.3919C35.786 72.2146 36.9452 68.9127 38.2991 65.5543C39.253 67.4808 40.2605 69.406 41.3203 71.32H41.3205C42.4001 73.27 43.5185 75.18 44.6665 77.0427ZM60.2947 90.5495C58.1369 88.1152 55.9846 85.4224 53.8826 82.526C55.9232 82.6097 58.0036 82.6525 60.1179 82.6525C62.2901 82.6525 64.4374 82.6014 66.551 82.503C64.4758 85.4516 62.3804 88.1485 60.2947 90.5495ZM82.0244 65.3831C83.4488 68.7778 84.6496 72.0624 85.603 75.1856C82.513 75.9227 79.1769 76.5163 75.6618 76.9574C76.7682 75.1243 77.8602 73.2329 78.9333 71.2873C80.019 69.3189 81.0497 67.3476 82.0244 65.3831ZM74.9898 68.9091C73.3239 71.9294 71.6136 74.8125 69.8773 77.534C66.7149 77.7704 63.4478 77.8922 60.1179 77.8922C56.8015 77.8922 53.5755 77.7845 50.4691 77.5737C48.6628 74.8165 46.9154 71.9248 45.2601 68.9351H45.2605C43.6096 65.9536 42.0901 62.9469 40.7133 59.957C42.0897 56.9602 43.6052 53.9501 45.2466 50.9739L45.2462 50.9745C46.892 47.9904 48.6241 45.1128 50.4137 42.3728C53.5831 42.1223 56.8332 41.9916 60.1177 41.9916H60.1179C63.4173 41.9916 66.6715 42.1233 69.8399 42.376C71.6022 45.0959 73.3225 47.9642 74.9748 50.9487C76.6458 53.9667 78.1808 56.9568 79.569 59.8894C78.185 62.8723 76.6534 65.8925 74.9898 68.9091ZM84.3813 15.7512C87.9501 17.9031 89.3379 26.5815 87.0957 37.9616C86.9527 38.6878 86.7916 39.4274 86.6167 40.1769C82.1953 39.1102 77.3941 38.3165 72.3674 37.8234C69.4391 33.4631 66.4046 29.4992 63.3586 26.0674C64.1776 25.2437 64.9953 24.4582 65.8097 23.717C73.6775 16.5577 81.031 13.7311 84.3813 15.7512Z"
              fill="white"/>
        <path d="M60.1182 49.8923C65.3739 49.8923 69.6346 54.3472 69.6346 59.8428C69.6346 65.3381 65.3739 69.7932 60.1182 69.7932C54.8625 69.7932 50.6018 65.3381 50.6018 59.8428C50.6018 54.3472 54.8625 49.8923 60.1182 49.8923Z"
              fill="#53C1DE"/>
    </g>

    <g id="sc">
        <g clip-path="url(#clip0_1_1803)">
            <path d="M68.7673 118.279C68.9473 117.872 69.4015 117.589 69.7315 117.246C74.7666 111.967 79.8446 106.735 84.8111 101.391C86.3653 99.9558 87.5662 98.1804 88.32 96.2036C89.0739 94.2269 89.3601 92.1026 89.1563 89.9968C89.0004 89.0951 88.7958 88.2025 88.5435 87.3229C87.1894 88.6084 85.9296 89.7783 84.6611 90.9567C82.6899 92.7908 80.7273 94.6334 78.739 96.4461C77.5665 97.6415 76.059 98.4531 74.4156 98.7737C72.7721 99.0943 71.0701 98.9087 69.5344 98.2416C67.9797 97.6705 66.627 96.6553 65.6443 95.3221C64.6616 93.9889 64.092 92.3965 64.0064 90.7425C63.9604 90.5297 63.8988 90.3206 63.8222 90.1168C62.3095 91.4024 60.8611 92.5851 59.4256 93.8021L29.5877 119.085C29.382 119.261 29.1591 119.479 28.9663 119.65H68.7459L68.6859 119.612C68.4716 119.462 68.583 118.673 68.7673 118.279Z"
                  fill="#FFCEBF"/>
            <path d="M27.1436 118.279C27.4974 117.818 27.9245 117.418 28.4077 117.096L69.7 82.0642C72.5168 79.6731 75.3207 77.2691 78.1118 74.8522C78.4567 74.6118 78.727 74.2791 78.8918 73.8924C79.5594 70.9831 79.654 67.9717 79.1703 65.0263C78.7418 65.3262 78.5104 65.4548 78.3132 65.6648C74.9322 68.6901 71.5683 71.7412 68.1702 74.7494C67.0445 75.8824 65.5885 76.6292 64.0116 76.8825C62.4346 77.1359 60.818 76.8826 59.3941 76.1592C57.9414 75.4734 56.7256 74.3709 55.9014 72.992C55.0773 71.6131 54.682 70.0201 54.766 68.4159V67.0275C54.1447 67.4817 53.6905 67.7859 53.2662 68.1287C36.7396 81.3615 20.2159 94.5842 3.69496 107.797C2.94933 108.393 2.05801 109.721 1.08098 108.431C0.103957 107.141 1.59092 106.61 2.34083 106.01C19.953 91.8774 37.5738 77.7576 55.2031 63.6507C58.0742 61.3496 58.2628 60.3854 56.3944 56.7301L55.2803 57.7757C52.2249 60.6168 49.1353 63.4193 46.1271 66.3075C44.8931 67.4978 43.3476 68.3148 41.6691 68.6641C39.9906 69.0135 38.2476 68.8809 36.6412 68.2818C35.0348 67.6827 33.6306 66.6415 32.5908 65.2784C31.5509 63.9153 30.9178 62.2858 30.7646 60.5782C30.1947 61.0067 29.7019 61.3196 29.2348 61.6838L3.09503 81.9443C2.64419 82.3864 2.13005 82.7591 1.5695 83.0498C1.14643 83.1777 0.692134 83.155 0.283936 82.9856V119.671H27.0922C26.9925 119.451 26.9453 119.21 26.9542 118.969C26.9631 118.727 27.028 118.491 27.1436 118.279Z"
                  fill="#FFCEBF"/>
            <path d="M99.5652 1.82096C98.8367 4.20782 98.1297 6.59897 97.4912 9.01154C96.9014 10.7164 96.97 12.5802 97.6836 14.2371C98.3971 15.8941 99.704 17.2246 101.348 17.9676C106.376 20.6107 112.042 21.798 117.709 21.3958V2.22806C117.646 1.80781 117.669 1.37914 117.777 0.968207C117.897 0.73576 118.049 0.520916 118.227 0.329712H99.5481C99.8352 0.663958 99.7366 1.25103 99.5652 1.82096Z"
                  fill="#FF6196"/>
            <path d="M62.051 42.9976C61.9621 45.137 61.2137 47.1966 59.9084 48.894C55.2418 54.9179 49.8828 60.3719 43.9417 65.1435C42.9836 66.0304 41.7693 66.591 40.4728 66.745C39.1764 66.8989 37.8646 66.6383 36.7254 66.0005C35.5916 65.5161 34.6356 64.6925 33.9887 63.6428C33.3419 62.5932 33.036 61.369 33.113 60.1384C33.2502 58.627 33.8777 57.202 34.8999 56.0803C41.5434 49.7455 48.7414 44.019 56.4074 38.9695C56.9094 38.5758 57.5226 38.3499 58.1601 38.3237C58.7976 38.2976 59.4272 38.4725 59.9598 38.8238C60.6598 39.2585 61.2258 39.8786 61.5949 40.6153C61.9641 41.352 62.1219 42.1766 62.051 42.9976Z"
                  fill="#FF87AF"/>
            <path d="M56.9126 68.97C56.8131 68.0228 56.9347 67.0654 57.2678 66.1731C57.6009 65.2809 58.1365 64.478 58.8324 63.8277C65.3372 57.8281 72.3163 52.3638 79.7013 47.4883C79.9241 47.3468 80.1298 47.2054 80.3741 47.0597C81.0192 46.594 81.8008 46.356 82.5959 46.3832C83.3911 46.4103 84.1546 46.7011 84.7664 47.2097C85.3584 47.7112 85.7772 48.3865 85.9634 49.1396C86.1496 49.8928 86.0936 50.6854 85.8034 51.4049C84.8691 54.5168 83.1448 57.3337 80.7983 59.5811C76.0329 64.2758 71.1753 68.8762 66.2286 73.3795C65.4836 74.1456 64.5051 74.6422 63.4469 74.7911C62.3888 74.9401 61.3111 74.7329 60.3836 74.2022C59.409 73.6958 58.5791 72.9499 57.9719 72.0347C57.3648 71.1194 57.0002 70.0648 56.9126 68.97Z"
                  fill="#FF87AF"/>
            <path d="M87.8344 71.8015C86.6346 73.0871 85.4004 74.3126 84.2477 75.6282C83.9011 76.1367 83.6136 76.683 83.3907 77.2566C84.0249 77.4451 84.7662 77.9422 85.2804 77.7665C87.8987 76.888 90.4527 75.8339 93.3281 74.724C92.7024 76.1638 92.231 77.4922 91.5668 78.7092C88.8305 83.3078 85.4038 87.4587 81.4066 91.0164C79.8868 92.4819 78.3084 93.8832 76.6715 95.2201C75.8046 95.9395 74.7622 96.4157 73.6509 96.6001C72.5396 96.7844 71.3992 96.6702 70.3465 96.2692C69.2938 95.8681 68.3665 95.1947 67.6595 94.3176C66.9525 93.4406 66.4912 92.3916 66.3227 91.2778C66.254 90.6585 66.3087 90.0317 66.4838 89.4337C66.6589 88.8357 66.9507 88.2784 67.3426 87.7939C73.174 81.4614 79.8384 75.9503 87.1531 71.4115C87.242 71.3771 87.3363 71.3582 87.4316 71.3558L87.8344 71.8015Z"
                  fill="#FF87AF"/>
            <path d="M97.6724 54.7335L105.004 22.1659L110.147 23.37L107.494 31.4305C105.017 38.9296 102.51 46.4287 100.093 53.9364C99.6221 55.3248 99.0051 55.5819 97.6724 54.7335Z"
                  fill="#FF6196"/>
            <path d="M89.3857 73.8885C90.1614 70.9274 90.9327 68.1892 91.5841 65.421C92.2189 62.7364 93.4263 60.2207 95.1236 58.0461C96.1649 56.6791 97.3348 57.2234 98.5304 57.519C99.636 57.789 99.9145 58.5989 99.9616 59.6616C100.136 62.6005 99.241 65.5031 97.4419 67.8335C95.3002 70.4887 92.5317 72.5695 89.3857 73.8885Z"
                  fill="#FF6196"/>
            <path d="M119.944 3.83936C120.008 2.88498 119.983 1.92674 119.871 0.976845C119.783 0.711516 119.607 0.483621 119.374 0.329779C119.184 0.175101 118.961 0.0652523 118.723 0.00838844C118.585 -0.0173228 118.393 0.124089 118.208 0.325493C118.03 0.516698 117.878 0.731542 117.758 0.96399C117.65 1.37492 117.627 1.80359 117.69 2.22384V21.3873C112.023 21.7895 106.357 20.6022 101.329 17.9591C99.685 17.2161 98.3781 15.8856 97.6646 14.2286C96.951 12.5717 96.8824 10.7079 97.4722 9.00304C98.1107 6.59046 98.8178 4.19932 99.5462 1.81246C99.7177 1.24253 99.8162 0.655454 99.5462 0.321208C99.3961 0.158494 99.1888 0.0602123 98.9677 0.0469556C98.6847 0.0500088 98.4105 0.146413 98.1878 0.321208C97.8674 0.512888 97.6121 0.796593 97.4551 1.1354C96.598 3.70652 95.8438 6.30336 95.1882 8.9259C94.9407 9.95936 94.874 11.0279 94.9911 12.0841C95.1569 13.9952 95.8676 15.8186 97.0389 17.3377C98.2102 18.8569 99.7928 20.0081 101.599 20.6545C102.409 20.993 102.884 21.3273 102.657 22.3943C102.344 23.7484 102.04 25.1026 101.732 26.461C99.632 35.6656 97.5436 44.8745 95.4667 54.0877C95.4082 54.4985 95.2275 54.8822 94.9482 55.189C93.5793 56.2771 92.4291 57.6148 91.5586 59.1314C90.4493 61.1327 89.6817 63.3052 89.2875 65.5592C89.2118 66.2782 88.952 66.9655 88.5331 67.5548C88.1143 68.144 87.5505 68.6153 86.8963 68.9231C85.1094 69.8273 83.4682 70.9971 81.4841 72.2141C81.6164 69.8282 81.5906 67.4361 81.407 65.0535C81.256 64.3206 81.288 63.5618 81.5003 62.8442C81.7126 62.1267 82.0985 61.4725 82.624 60.9397C85.2375 58.3506 87.1005 55.1015 88.0148 51.538C88.2878 50.712 88.3627 49.8333 88.2333 48.9729C88.104 48.1126 87.774 47.2948 87.27 46.5856C86.7661 45.8764 86.1023 45.2957 85.3325 44.8905C84.5626 44.4853 83.7081 44.267 82.8382 44.2531C81.4298 44.2374 80.047 44.6304 78.8573 45.3844C74.7683 48.1767 70.7504 51.0715 66.8073 54.0663C64.4633 55.8318 62.2564 57.7858 59.9852 59.637C59.8873 59.5319 59.8025 59.4154 59.7324 59.2899C59.689 58.9744 59.604 58.6661 59.4796 58.3729C57.5812 55.4418 58.8968 53.3121 60.958 51.1223C63.1053 48.8714 64.2919 45.8727 64.2661 42.7619C64.3327 41.1769 63.8363 39.6194 62.8649 38.3653C62.3474 37.7286 61.7096 37.2001 60.988 36.8097C59.9629 36.2487 58.7908 36.0145 57.6289 36.1386C56.467 36.2627 55.3708 36.7391 54.4873 37.5039L53.2917 38.361C50.5621 40.315 47.7981 42.2177 45.1713 44.3089C41.3364 47.3705 37.5841 50.5341 33.9183 53.7963C32.2042 55.309 30.953 57.3744 29.1746 58.78C19.9014 66.1034 10.5297 73.294 1.1922 80.5317C0.871132 80.7232 0.575909 80.9551 0.313735 81.2216C0.286745 81.2606 0.263774 81.3023 0.245172 81.3459C0.0480521 81.8044 -0.119071 82.5629 0.112331 82.8414C0.169054 82.9019 0.23761 82.95 0.313735 82.9828C0.721934 83.1523 1.17623 83.175 1.5993 83.0471C2.15985 82.7563 2.67399 82.3837 3.12483 81.9415L29.2646 61.6811C29.7317 61.3168 30.2245 60.9869 30.7944 60.5755C30.9476 62.2831 31.5807 63.9125 32.6206 65.2757C33.6604 66.6388 35.0646 67.68 36.671 68.2791C38.2774 68.8782 40.0204 69.0107 41.6989 68.6614C43.3774 68.312 44.9229 67.4951 46.1569 66.3048C49.1565 63.4166 52.2547 60.6141 55.3101 57.773L56.4242 56.7274C58.2926 60.3827 58.104 61.3468 55.2329 63.648C37.5893 77.7663 19.9585 91.8875 2.34064 106.012C1.59073 106.611 0.108046 107.156 1.08079 108.433C2.05353 109.71 2.94914 108.394 3.69476 107.798C20.2242 94.5972 36.7423 81.3787 53.2489 68.1432C53.6774 67.8003 54.1273 67.4961 54.7487 67.0419V68.4303C54.6647 70.0345 55.0599 71.6275 55.8841 73.0064C56.7082 74.3853 57.924 75.4879 59.3767 76.1736C60.8007 76.897 62.4173 77.1503 63.9942 76.897C65.5711 76.6436 67.0271 75.8968 68.1528 74.7638C71.551 71.7642 74.9149 68.7045 78.2959 65.6792C78.5102 65.4863 78.7587 65.3406 79.153 65.0407C79.6367 67.9861 79.542 70.9975 78.8744 73.9068C78.7096 74.2936 78.4394 74.6262 78.0945 74.8667C75.3005 77.2807 72.4966 79.6847 69.6826 82.0787L28.4075 117.115C27.9243 117.437 27.4972 117.836 27.1434 118.297C27.0305 118.507 26.9672 118.741 26.9582 118.979C26.9493 119.217 26.9951 119.455 27.092 119.673C27.2856 119.818 27.5094 119.917 27.7468 119.964C27.9842 120.011 28.2291 120.004 28.4633 119.943C28.648 119.889 28.8181 119.794 28.9603 119.664C29.1746 119.493 29.3889 119.274 29.5817 119.099L59.4196 93.8158C60.8551 92.5988 62.3035 91.399 63.8162 90.1306C63.8928 90.3343 63.9544 90.5434 64.0005 90.7562C64.0861 92.4102 64.6556 94.0027 65.6383 95.3358C66.6211 96.669 67.9737 97.6842 69.5284 98.2553C71.0641 98.9225 72.7662 99.108 74.4096 98.7874C76.053 98.4669 77.5606 97.6552 78.733 96.4598C80.7213 94.6472 82.684 92.8045 84.6552 90.9705C85.9407 89.792 87.1834 88.6093 88.5376 87.3366C88.7898 88.2162 88.9944 89.1089 89.1503 90.0106C89.3473 92.1094 89.0578 94.2253 88.3042 96.1941C87.5506 98.1628 86.3532 99.9313 84.8051 101.362C79.8386 106.71 74.7606 111.942 69.7255 117.217C69.3955 117.56 68.9413 117.843 68.7613 118.25C68.5813 118.657 68.4657 119.454 68.6799 119.626L68.7399 119.664C69.1892 119.883 69.6945 119.959 70.1883 119.883C70.3267 119.854 70.45 119.777 70.5354 119.664C70.6554 119.54 70.7711 119.386 70.8868 119.27C74.9663 115.053 79.0672 110.858 83.1168 106.611C84.7513 104.955 86.288 103.205 87.7191 101.371C89.5851 99.3049 90.8224 96.7492 91.2855 94.0042C91.7486 91.2591 91.4181 88.439 90.3331 85.8754C90.2164 85.3037 90.3304 84.7092 90.6502 84.2213C90.9287 83.7413 91.2372 83.2742 91.5543 82.8114C92.569 81.494 93.4141 80.0544 94.0698 78.5262C95.3368 74.7758 97.2817 71.2898 99.8076 68.2417C100.969 66.7695 101.768 65.0448 102.14 63.207C102.512 61.3692 102.447 59.4696 101.95 57.6616C101.775 56.9741 101.775 56.2535 101.95 55.5661C104.119 48.8512 106.351 42.1577 108.562 35.4599L111.519 26.4867L112.432 23.7142C114.377 23.7142 116.211 23.6756 118.037 23.7142C119.554 23.757 120.017 23.0457 120 21.5715C119.91 15.658 119.944 9.74866 119.944 3.83936ZM43.9371 65.1435C42.9791 66.0304 41.7647 66.591 40.4683 66.745C39.1719 66.8989 37.86 66.6383 36.7208 66.0006C35.587 65.5162 34.631 64.6925 33.9842 63.6429C33.3373 62.5932 33.0314 61.369 33.1084 60.1384C33.2457 58.6271 33.8732 57.202 34.8953 56.0803C41.5388 49.7455 48.7368 44.019 56.4028 38.9695C56.8212 38.6737 57.2972 38.4693 57.7998 38.3696C58.1369 38.3074 58.4825 38.3074 58.8196 38.3696C59.2234 38.4482 59.6086 38.6023 59.9552 38.8238C60.656 39.2588 61.2224 39.8796 61.5916 40.6171C61.9607 41.3547 62.1182 42.1802 62.0464 43.0019C61.9576 45.1413 61.2092 47.2009 59.9038 48.8983C55.237 54.9207 49.878 60.3733 43.9371 65.1435ZM66.2202 73.4097C65.4752 74.1758 64.4966 74.6724 63.4385 74.8213C62.3803 74.9703 61.3027 74.7631 60.3752 74.2324C59.3988 73.7249 58.5678 72.977 57.9605 72.0593C57.3533 71.1416 56.9897 70.0844 56.9042 68.9874C56.8047 68.0401 56.9263 67.0828 57.2594 66.1905C57.5925 65.2982 58.1281 64.4954 58.8239 63.8451C65.3288 57.8454 72.3078 52.3811 79.6929 47.5056C79.9157 47.3642 80.1214 47.2228 80.3657 47.0771C81.0107 46.6114 81.7923 46.3734 82.5875 46.4005C83.3826 46.4277 84.1462 46.7185 84.758 47.2271C85.35 47.7285 85.7688 48.4038 85.955 49.157C86.1412 49.9101 86.0852 50.7028 85.795 51.4223C84.8607 54.5342 83.1364 57.351 80.7899 59.5985C76.0633 64.3208 71.1482 68.8674 66.2288 73.3925L66.2202 73.4097ZM91.5501 78.7276C88.8175 83.319 85.3967 87.4638 81.407 91.0176C79.8872 92.4831 78.3088 93.8844 76.6718 95.2214C75.8049 95.9408 74.7625 96.417 73.6512 96.6013C72.5399 96.7856 71.3996 96.6714 70.3469 96.2704C69.2942 95.8694 68.3669 95.1959 67.6599 94.3189C66.9529 93.4419 66.4915 92.3928 66.323 91.279C66.2543 90.6597 66.3091 90.0329 66.4842 89.435C66.6592 88.837 66.9511 88.2796 67.3429 87.7951C73.1743 81.4627 79.8387 75.9515 87.1534 71.4128C87.2424 71.3783 87.3366 71.3594 87.432 71.3571L87.8605 71.7856C86.6606 73.0712 85.4265 74.2967 84.2738 75.6123C83.9272 76.1208 83.6396 76.6671 83.4167 77.2407C84.0509 77.4292 84.7923 77.9263 85.3065 77.7506C87.3763 77.0564 89.4117 76.2508 91.5929 75.3937L93.3541 74.7081C92.6942 76.1651 92.2228 77.4935 91.5586 78.7105L91.5501 78.7276ZM97.4336 67.8646C95.8352 69.8996 93.8317 71.5806 91.5501 72.8012C90.8444 73.1954 90.1202 73.564 89.3775 73.9068C90.1402 70.9885 90.903 68.2846 91.5501 65.5506L91.5758 65.4392C92.2106 62.7546 93.418 60.2389 95.1153 58.0644C96.1566 56.6974 97.3265 57.2416 98.5221 57.5373C99.6277 57.8073 99.9062 58.6172 99.9533 59.6799C100.129 62.6162 99.2372 65.5171 97.4422 67.8475L97.4336 67.8646ZM107.461 31.4404C104.984 38.9395 102.477 46.4386 100.06 53.9463C99.6062 55.3561 98.9892 55.6132 97.6565 54.7648L104.011 26.5124L104.988 22.1758L110.131 23.3799L109.098 26.5124L107.461 31.4404Z"
                  fill="#1F2626"/>
        </g>
        <defs>
            <clipPath id="clip0_1_1803">
                <rect width="120" height="120" fill="white"/>
            </clipPath>
        </defs>
    </g>

    <g id="bootstrap">
        <g clip-path="url(#clip0_2_5691)">
            <path d="M0 75.7821C0 81.9781 5.08028 87 11.3468 87H76.6528C82.9204 87 88 81.9774 88 75.7821V11.2182C88 5.02187 82.9197 0 76.6532 0H11.3472C5.07959 0 0 5.02255 0 11.2179V75.7818V75.7821Z"
                  fill="#563D7C"/>
            <path d="M36.4919 38.4832V26.1629H47.4613C48.5063 26.1629 49.5135 26.2489 50.4836 26.4212C51.4536 26.5931 52.312 26.9003 53.0583 27.3431C53.8042 27.786 54.4013 28.4007 54.8492 29.1875C55.2968 29.9746 55.5209 30.9829 55.5209 32.2121C55.5209 34.4255 54.8492 36.0241 53.5058 37.0076C52.1628 37.9915 50.4464 38.4832 48.3568 38.4832H36.4919ZM24.7759 17.1621V69.8379H50.5956C52.9837 69.8379 55.3095 69.5429 57.5731 68.9526C59.8367 68.3623 61.8514 67.4525 63.6176 66.223C65.3834 64.9934 66.789 63.407 67.8337 61.4645C68.8787 59.5216 69.4008 57.2222 69.4008 54.5663C69.4008 51.2709 68.5923 48.4553 66.9757 46.1192C65.3587 43.7828 62.9084 42.1474 59.6249 41.2129C62.0129 40.0819 63.8166 38.6307 65.0355 36.8601C66.2541 35.0895 66.8636 32.8765 66.8636 30.2203C66.8636 27.7612 66.4532 25.6956 65.6323 24.0232C64.8114 22.3512 63.6547 21.0108 62.1621 20.0025C60.6699 18.9942 58.879 18.2686 56.7893 17.8262C54.7 17.3833 52.3866 17.1621 49.8493 17.1621H24.7759ZM36.4919 60.8371V46.3771H49.2523C51.7895 46.3771 53.8293 46.9548 55.3717 48.111C56.9138 49.2668 57.6851 51.1971 57.6851 53.9023C57.6851 55.2797 57.4486 56.4107 56.976 57.296C56.5033 58.1813 55.8691 58.8823 55.073 59.3986C54.2772 59.9151 53.3566 60.2839 52.312 60.5054C51.267 60.7263 50.1728 60.8371 49.0285 60.8371H36.4919Z"
                  fill="white"/>
        </g>
        <defs>
            <clipPath id="clip0_2_5691">
                <rect width="88" height="87" fill="white"/>
            </clipPath>
        </defs>
    </g>

    <g id="git">
        <g clip-path="url(#clip0_2_5685)">
            <path d="M103.02 47.8219L57.1758 1.98038C54.5372 -0.6598 50.2552 -0.6598 47.6134 1.98038L38.0937 11.5001L50.1699 23.5763C52.9762 22.6281 56.1943 23.2642 58.4313 25.5012C60.6789 27.7525 61.3106 30.9981 60.3393 33.8134L71.9775 45.452C74.7932 44.482 78.0421 45.1095 80.291 47.3621C83.434 50.5039 83.434 55.596 80.291 58.7399C77.1471 61.8841 72.055 61.8841 68.9095 58.7399C66.5454 56.3733 65.9613 52.9013 67.1582 49.9888L56.3046 39.1352L56.3034 67.6973C57.0902 68.0863 57.8088 68.6002 58.4313 69.2189C61.5743 72.3607 61.5743 77.4532 58.4313 80.5995C55.2874 83.7422 50.1929 83.7422 47.0535 80.5995C43.9105 77.4532 43.9105 72.3611 47.0535 69.2193C47.8067 68.4658 48.7019 67.869 49.6871 67.4635V38.6352C48.7004 38.2324 47.8048 37.6353 47.0535 36.8793C44.6722 34.5013 44.0996 31.0071 45.3198 28.0831L33.4154 16.1775L1.98105 47.6099C-0.660352 50.2525 -0.660352 54.5349 1.98105 57.1755L47.8259 103.018C50.4652 105.658 54.7464 105.658 57.3891 103.018L103.019 57.3884C105.66 54.747 105.66 50.4621 103.019 47.8219"
                  fill="#DE4C36"/>
        </g>
        <defs>
            <clipPath id="clip0_2_5685">
                <rect width="105" height="105" fill="white"/>
            </clipPath>
        </defs>
    </g>

    <g id="gitHub">
        <path fill-rule="evenodd" clip-rule="evenodd"
              d="M44 0C19.69 0 0 19.69 0 44C0 63.47 12.595 79.915 30.085 85.745C32.285 86.13 33.11 84.81 33.11 83.655C33.11 82.61 33.055 79.145 33.055 75.46C22 77.495 19.14 72.765 18.26 70.29C17.765 69.025 15.62 65.12 13.75 64.075C12.21 63.25 10.01 61.215 13.695 61.16C17.16 61.105 19.635 64.35 20.46 65.67C24.42 72.325 30.745 70.455 33.275 69.3C33.66 66.44 34.815 64.515 36.08 63.415C26.29 62.315 16.06 58.52 16.06 41.69C16.06 36.905 17.765 32.945 20.57 29.865C20.13 28.765 18.59 24.255 21.01 18.205C21.01 18.205 24.695 17.05 33.11 22.715C36.63 21.725 40.37 21.23 44.11 21.23C47.85 21.23 51.59 21.725 55.11 22.715C63.525 16.995 67.21 18.205 67.21 18.205C69.63 24.255 68.09 28.765 67.65 29.865C70.455 32.945 72.16 36.85 72.16 41.69C72.16 58.575 61.875 62.315 52.085 63.415C53.68 64.79 55.055 67.43 55.055 71.555C55.055 77.44 55 82.17 55 83.655C55 84.81 55.825 86.185 58.025 85.745C66.7597 82.796 74.3497 77.1822 79.7268 69.6937C85.1039 62.2052 87.9974 53.219 88 44C88 19.69 68.31 0 44 0Z"
              fill="black"/>
    </g>

    <!--Social icons-->
    <g id="gmail">
        <g clip-path="url(#clip0_1_1732)">
            <path d="M24.0406 4.49746V19.2383C24.0406 20.0748 23.4031 20.7124 22.5666 20.7124H21.0925V7.33433L12.248 13.6876L3.40349 7.33433V20.7124H1.9294C1.09286 20.7124 0.455322 20.0748 0.455322 19.2383V4.49746C0.455322 4.07882 0.613049 3.7103 0.877647 3.44939C1.01545 3.31151 1.17958 3.20274 1.36026 3.12956C1.54094 3.05638 1.73449 3.02027 1.9294 3.02338H2.42101L12.248 10.1484L22.0749 3.02338H22.5666C22.9852 3.02338 23.3537 3.18111 23.6183 3.44939C23.8829 3.7103 24.0406 4.07882 24.0406 4.49746Z"
                  fill="#DBFFFF"/>
        </g>
        <defs>
            <clipPath id="clip0_1_1732">
                <rect width="23.5853" height="23.5853" fill="white" transform="translate(0.455078 0.0755615)"/>
            </clipPath>
        </defs>
    </g>

    <g id="gitHub">
        <g clip-path="url(#clip0_1_1746)">
            <path fill-rule="evenodd" clip-rule="evenodd"
                  d="M19.2142 0C8.78949 0 0.345947 8.44354 0.345947 18.8682C0.345947 27.2175 5.74698 34.2695 13.2471 36.7695C14.1905 36.9346 14.5443 36.3686 14.5443 35.8733C14.5443 35.4251 14.5207 33.9393 14.5207 32.3591C9.78007 33.2317 8.55364 31.2034 8.17627 30.142C7.964 29.5996 7.04418 27.925 6.24228 27.4769C5.58189 27.1231 4.63847 26.2505 6.21869 26.2269C7.70457 26.2033 8.7659 27.5948 9.11968 28.1609C10.8178 31.0147 13.5301 30.2128 14.6151 29.7175C14.7802 28.4911 15.2755 27.6656 15.8179 27.1939C11.6197 26.7222 7.23286 25.0948 7.23286 17.8777C7.23286 15.8257 7.964 14.1276 9.16685 12.8068C8.97817 12.3351 8.31778 10.4011 9.35554 7.80674C9.35554 7.80674 10.9358 7.31145 14.5443 9.74073C16.0538 9.3162 17.6576 9.10393 19.2614 9.10393C20.8652 9.10393 22.469 9.3162 23.9784 9.74073C27.587 7.28786 29.1672 7.80674 29.1672 7.80674C30.205 10.4011 29.5446 12.3351 29.3559 12.8068C30.5587 14.1276 31.2899 15.8022 31.2899 17.8777C31.2899 25.1184 26.8794 26.7222 22.6812 27.1939C23.3652 27.7835 23.9548 28.9156 23.9548 30.6845C23.9548 33.2081 23.9313 35.2365 23.9313 35.8733C23.9313 36.3686 24.285 36.9582 25.2285 36.7695C28.9741 35.5049 32.2289 33.0976 34.5347 29.8863C36.8405 26.6751 38.0813 22.8216 38.0825 18.8682C38.0825 8.44354 29.6389 0 19.2142 0Z"
                  fill="#5222D0"/>
        </g>
        <defs>
            <clipPath id="clip0_1_1746">
                <rect width="37.7365" height="37.7365" fill="white" transform="translate(0.345947)"/>
            </clipPath>
        </defs>
    </g>

    <g id="linkedin">
        <path d="M1.06326 21.7052H5.01128V7.09748H1.06326V21.7052ZM3.03727 0.649048C1.72126 0.649048 0.668457 1.70185 0.668457 3.01786C0.668457 4.33387 1.72126 5.38667 3.03727 5.38667C4.35328 5.38667 5.40608 4.33387 5.40608 3.01786C5.40608 1.70185 4.35328 0.649048 3.03727 0.649048ZM11.7229 9.3347V7.09748H7.7749V21.7052H11.7229V14.2039C11.7229 9.9927 17.1185 9.7295 17.1185 14.2039V21.7052H21.0666V12.7563C21.0666 5.64987 13.5653 5.91308 11.7229 9.3347Z"
              fill="#DBFFFF"/>
    </g>
</svg>
