<svg width="105" height="78" viewBox="0 0 105 78" fill="none" xmlns="http://www.w3.org/2000/svg">
<path d="M16.665 66.2174C13.585 66.2174 11.2567 65.4474 9.68 63.9074C8.10333 62.3674 7.315 60.149 7.315 57.2524V45.9224C7.315 45.0057 7.095 44.3457 6.655 43.9424C6.215 43.5024 5.61 43.2824 4.84 43.2824H3.025V37.6724H4.84C5.61 37.6724 6.215 37.4524 6.655 37.0124C7.095 36.5724 7.315 35.9124 7.315 35.0324V23.7024C7.315 20.769 8.10333 18.5507 9.68 17.0474C11.2567 15.5074 13.585 14.7374 16.665 14.7374H19.415V20.2374H18.26C16.9033 20.2374 15.8767 20.604 15.18 21.3374C14.52 22.0707 14.19 23.0974 14.19 24.4174V34.8674C14.19 36.334 14.0067 37.4707 13.64 38.2774C13.2733 39.084 12.6867 39.689 11.88 40.0924C11.11 40.459 10.1017 40.734 8.855 40.9174V40.0374C10.1017 40.184 11.11 40.459 11.88 40.8624C12.6867 41.2657 13.2733 41.8707 13.64 42.6774C14.0067 43.484 14.19 44.6207 14.19 46.0874V56.5374C14.19 57.8574 14.52 58.884 15.18 59.6174C15.8767 60.3507 16.9033 60.7174 18.26 60.7174H19.415V66.2174H16.665ZM84.8422 66.2174H82.0922V60.7174H83.2472C84.6406 60.7174 85.6672 60.3507 86.3272 59.6174C87.0239 58.884 87.3722 57.8574 87.3722 56.5374V46.0874C87.3722 44.6207 87.5556 43.484 87.9222 42.6774C88.3256 41.8707 88.9122 41.2657 89.6822 40.8624C90.4522 40.459 91.4422 40.184 92.6522 40.0374V40.9174C91.4422 40.734 90.4522 40.459 89.6822 40.0924C88.9122 39.689 88.3256 39.084 87.9222 38.2774C87.5556 37.4707 87.3722 36.334 87.3722 34.8674V24.4174C87.3722 23.0974 87.0239 22.0707 86.3272 21.3374C85.6672 20.604 84.6406 20.2374 83.2472 20.2374H82.0922V14.7374H84.8422C87.9589 14.7374 90.3056 15.5074 91.8822 17.0474C93.4589 18.5507 94.2472 20.769 94.2472 23.7024V35.0324C94.2472 35.9124 94.4672 36.5724 94.9072 37.0124C95.3472 37.4524 95.9339 37.6724 96.6672 37.6724H98.5372V43.2824H96.6672C95.9339 43.2824 95.3472 43.5024 94.9072 43.9424C94.4672 44.3457 94.2472 45.0057 94.2472 45.9224V57.2524C94.2472 60.149 93.4589 62.3674 91.8822 63.9074C90.3056 65.4474 87.9589 66.2174 84.8422 66.2174Z" fill="#C7C7C7"/>
<path d="M55.555 66L38.725 27.5H46.48L61.495 62.315H57.04L72.22 27.5H79.37L62.595 66H55.555Z" fill="#8457FA"/>
<path d="M25.17 53V14.5H32.32V46.95H52.45V53H25.17Z" fill="#8457FA"/>
</svg>
