<svg width="103" height="106" viewBox="0 0 103 106" fill="none" xmlns="http://www.w3.org/2000/svg">
<path d="M16.665 66.4449C13.585 66.4449 11.2567 65.6749 9.68 64.1349C8.10333 62.5949 7.315 60.3766 7.315 57.4799V46.1499C7.315 45.2332 7.095 44.5732 6.655 44.1699C6.215 43.7299 5.61 43.5099 4.84 43.5099H3.025V37.8999H4.84C5.61 37.8999 6.215 37.6799 6.655 37.2399C7.095 36.7999 7.315 36.1399 7.315 35.2599V23.9299C7.315 20.9966 8.10333 18.7782 9.68 17.2749C11.2567 15.7349 13.585 14.9649 16.665 14.9649H19.415V20.4649H18.26C16.9033 20.4649 15.8767 20.8316 15.18 21.5649C14.52 22.2982 14.19 23.3249 14.19 24.6449V35.0949C14.19 36.5616 14.0067 37.6982 13.64 38.5049C13.2733 39.3116 12.6867 39.9166 11.88 40.3199C11.11 40.6866 10.1017 40.9616 8.855 41.1449V40.2649C10.1017 40.4116 11.11 40.6866 11.88 41.0899C12.6867 41.4932 13.2733 42.0982 13.64 42.9049C14.0067 43.7116 14.19 44.8482 14.19 46.3149V56.7649C14.19 58.0849 14.52 59.1116 15.18 59.8449C15.8767 60.5782 16.9033 60.9449 18.26 60.9449H19.415V66.4449H16.665ZM84.8422 66.4449H82.0922V60.9449H83.2472C84.6406 60.9449 85.6672 60.5782 86.3272 59.8449C87.0239 59.1116 87.3722 58.0849 87.3722 56.7649V46.3149C87.3722 44.8482 87.5556 43.7116 87.9222 42.9049C88.3256 42.0982 88.9122 41.4932 89.6822 41.0899C90.4522 40.6866 91.4422 40.4116 92.6522 40.2649V41.1449C91.4422 40.9616 90.4522 40.6866 89.6822 40.3199C88.9122 39.9166 88.3256 39.3116 87.9222 38.5049C87.5556 37.6982 87.3722 36.5616 87.3722 35.0949V24.6449C87.3722 23.3249 87.0239 22.2982 86.3272 21.5649C85.6672 20.8316 84.6406 20.4649 83.2472 20.4649H82.0922V14.9649H84.8422C87.9589 14.9649 90.3056 15.7349 91.8822 17.2749C93.4589 18.7782 94.2472 20.9966 94.2472 23.9299V35.2599C94.2472 36.1399 94.4672 36.7999 94.9072 37.2399C95.3472 37.6799 95.9339 37.8999 96.6672 37.8999H98.5372V43.5099H96.6672C95.9339 43.5099 95.3472 43.7299 94.9072 44.1699C94.4672 44.5732 94.2472 45.2332 94.2472 46.1499V57.4799C94.2472 60.3766 93.4589 62.5949 91.8822 64.1349C90.3056 65.6749 87.9589 66.4449 84.8422 66.4449Z" fill="#1F2626"/>
<path d="M56.8719 67.7998L40.0419 29.2998H47.7969L62.8119 64.1148H58.3569L73.5369 29.2998H80.6869L63.9119 67.7998H56.8719Z" fill="#5222D0"/>
<path d="M22.8702 53V14.5H30.0202V46.95H50.1502V53H22.8702Z" fill="#5222D0"/>
<path d="M11.504 101.243V90.0432H16.4C17.616 90.0432 18.6827 90.2778 19.6 90.7472C20.5173 91.2165 21.232 91.8672 21.744 92.6992C22.256 93.5312 22.512 94.5125 22.512 95.6432C22.512 96.7632 22.256 97.7445 21.744 98.5872C21.232 99.4192 20.5173 100.07 19.6 100.539C18.6827 101.008 17.616 101.243 16.4 101.243H11.504ZM13.584 99.4832H16.304C17.1467 99.4832 17.872 99.3232 18.48 99.0032C19.0987 98.6832 19.5733 98.2352 19.904 97.6592C20.2453 97.0832 20.416 96.4112 20.416 95.6432C20.416 94.8645 20.2453 94.1925 19.904 93.6272C19.5733 93.0512 19.0987 92.6032 18.48 92.2832C17.872 91.9632 17.1467 91.8032 16.304 91.8032H13.584V99.4832ZM28.5468 101.355C27.5974 101.355 26.7654 101.168 26.0508 100.795C25.3468 100.411 24.7974 99.8885 24.4028 99.2272C24.0188 98.5658 23.8268 97.8138 23.8268 96.9712C23.8268 96.1178 24.0134 95.3658 24.3868 94.7152C24.7708 94.0538 25.2934 93.5365 25.9548 93.1632C26.6268 92.7898 27.3894 92.6032 28.2428 92.6032C29.0748 92.6032 29.8161 92.7845 30.4668 93.1472C31.1174 93.5098 31.6294 94.0218 32.0028 94.6832C32.3761 95.3445 32.5628 96.1232 32.5628 97.0192C32.5628 97.1045 32.5574 97.2005 32.5468 97.3072C32.5468 97.4138 32.5414 97.5152 32.5308 97.6112H25.4108V96.2832H31.4748L30.6908 96.6992C30.7014 96.2085 30.6001 95.7765 30.3868 95.4032C30.1734 95.0298 29.8801 94.7365 29.5068 94.5232C29.1441 94.3098 28.7228 94.2032 28.2428 94.2032C27.7521 94.2032 27.3201 94.3098 26.9468 94.5232C26.5841 94.7365 26.2961 95.0352 26.0828 95.4192C25.8801 95.7925 25.7788 96.2352 25.7788 96.7472V97.0672C25.7788 97.5792 25.8961 98.0325 26.1308 98.4272C26.3654 98.8218 26.6961 99.1258 27.1228 99.3392C27.5494 99.5525 28.0401 99.6592 28.5948 99.6592C29.0748 99.6592 29.5068 99.5845 29.8908 99.4352C30.2748 99.2858 30.6161 99.0512 30.9148 98.7312L31.9868 99.9632C31.6028 100.411 31.1174 100.758 30.5308 101.003C29.9548 101.238 29.2934 101.355 28.5468 101.355ZM36.5996 101.243L32.9356 92.6992H35.0156L38.1676 100.235H37.1436L40.4076 92.6992H42.3276L38.6636 101.243H36.5996ZM47.3593 101.355C46.4099 101.355 45.5779 101.168 44.8633 100.795C44.1593 100.411 43.6099 99.8885 43.2153 99.2272C42.8313 98.5658 42.6393 97.8138 42.6393 96.9712C42.6393 96.1178 42.8259 95.3658 43.1993 94.7152C43.5833 94.0538 44.1059 93.5365 44.7673 93.1632C45.4393 92.7898 46.2019 92.6032 47.0553 92.6032C47.8873 92.6032 48.6286 92.7845 49.2793 93.1472C49.9299 93.5098 50.4419 94.0218 50.8153 94.6832C51.1886 95.3445 51.3753 96.1232 51.3753 97.0192C51.3753 97.1045 51.3699 97.2005 51.3593 97.3072C51.3593 97.4138 51.3539 97.5152 51.3433 97.6112H44.2233V96.2832H50.2873L49.5033 96.6992C49.5139 96.2085 49.4126 95.7765 49.1993 95.4032C48.9859 95.0298 48.6926 94.7365 48.3193 94.5232C47.9566 94.3098 47.5353 94.2032 47.0553 94.2032C46.5646 94.2032 46.1326 94.3098 45.7593 94.5232C45.3966 94.7365 45.1086 95.0352 44.8953 95.4192C44.6926 95.7925 44.5913 96.2352 44.5913 96.7472V97.0672C44.5913 97.5792 44.7086 98.0325 44.9433 98.4272C45.1779 98.8218 45.5086 99.1258 45.9353 99.3392C46.3619 99.5525 46.8526 99.6592 47.4073 99.6592C47.8873 99.6592 48.3193 99.5845 48.7033 99.4352C49.0873 99.2858 49.4286 99.0512 49.7273 98.7312L50.7993 99.9632C50.4153 100.411 49.9299 100.758 49.3433 101.003C48.7673 101.238 48.1059 101.355 47.3593 101.355ZM53.2964 101.243V89.3712H55.2964V101.243H53.2964ZM61.7614 101.355C60.8867 101.355 60.108 101.168 59.4254 100.795C58.7427 100.411 58.204 99.8885 57.8094 99.2272C57.4147 98.5658 57.2174 97.8138 57.2174 96.9712C57.2174 96.1178 57.4147 95.3658 57.8094 94.7152C58.204 94.0538 58.7427 93.5365 59.4254 93.1632C60.108 92.7898 60.8867 92.6032 61.7614 92.6032C62.6467 92.6032 63.4307 92.7898 64.1134 93.1632C64.8067 93.5365 65.3454 94.0485 65.7294 94.6992C66.124 95.3498 66.3214 96.1072 66.3214 96.9712C66.3214 97.8138 66.124 98.5658 65.7294 99.2272C65.3454 99.8885 64.8067 100.411 64.1134 100.795C63.4307 101.168 62.6467 101.355 61.7614 101.355ZM61.7614 99.6432C62.252 99.6432 62.6894 99.5365 63.0734 99.3232C63.4574 99.1098 63.756 98.8005 63.9694 98.3952C64.1934 97.9898 64.3054 97.5152 64.3054 96.9712C64.3054 96.4165 64.1934 95.9418 63.9694 95.5472C63.756 95.1418 63.4574 94.8325 63.0734 94.6192C62.6894 94.4058 62.2574 94.2992 61.7774 94.2992C61.2867 94.2992 60.8494 94.4058 60.4654 94.6192C60.092 94.8325 59.7934 95.1418 59.5694 95.5472C59.3454 95.9418 59.2334 96.4165 59.2334 96.9712C59.2334 97.5152 59.3454 97.9898 59.5694 98.3952C59.7934 98.8005 60.092 99.1098 60.4654 99.3232C60.8494 99.5365 61.2814 99.6432 61.7614 99.6432ZM72.9699 101.355C72.2765 101.355 71.6419 101.195 71.0659 100.875C70.5005 100.555 70.0472 100.075 69.7059 99.4352C69.3752 98.7845 69.2099 97.9632 69.2099 96.9712C69.2099 95.9685 69.3699 95.1472 69.6899 94.5072C70.0205 93.8672 70.4685 93.3925 71.0339 93.0832C71.5992 92.7632 72.2445 92.6032 72.9699 92.6032C73.8125 92.6032 74.5539 92.7845 75.1939 93.1472C75.8445 93.5098 76.3565 94.0165 76.7299 94.6672C77.1139 95.3178 77.3059 96.0858 77.3059 96.9712C77.3059 97.8565 77.1139 98.6298 76.7299 99.2912C76.3565 99.9418 75.8445 100.448 75.1939 100.811C74.5539 101.174 73.8125 101.355 72.9699 101.355ZM68.2339 104.347V92.6992H70.1379V94.7152L70.0739 96.9872L70.2339 99.2592V104.347H68.2339ZM72.7459 99.6432C73.2259 99.6432 73.6525 99.5365 74.0259 99.3232C74.4099 99.1098 74.7139 98.8005 74.9379 98.3952C75.1619 97.9898 75.2739 97.5152 75.2739 96.9712C75.2739 96.4165 75.1619 95.9418 74.9379 95.5472C74.7139 95.1418 74.4099 94.8325 74.0259 94.6192C73.6525 94.4058 73.2259 94.2992 72.7459 94.2992C72.2659 94.2992 71.8339 94.4058 71.4499 94.6192C71.0659 94.8325 70.7619 95.1418 70.5379 95.5472C70.3139 95.9418 70.2019 96.4165 70.2019 96.9712C70.2019 97.5152 70.3139 97.9898 70.5379 98.3952C70.7619 98.8005 71.0659 99.1098 71.4499 99.3232C71.8339 99.5365 72.2659 99.6432 72.7459 99.6432ZM83.2186 101.355C82.2693 101.355 81.4373 101.168 80.7226 100.795C80.0186 100.411 79.4693 99.8885 79.0746 99.2272C78.6906 98.5658 78.4986 97.8138 78.4986 96.9712C78.4986 96.1178 78.6853 95.3658 79.0586 94.7152C79.4426 94.0538 79.9653 93.5365 80.6266 93.1632C81.2986 92.7898 82.0613 92.6032 82.9146 92.6032C83.7466 92.6032 84.488 92.7845 85.1386 93.1472C85.7893 93.5098 86.3013 94.0218 86.6746 94.6832C87.048 95.3445 87.2346 96.1232 87.2346 97.0192C87.2346 97.1045 87.2293 97.2005 87.2186 97.3072C87.2186 97.4138 87.2133 97.5152 87.2026 97.6112H80.0826V96.2832H86.1466L85.3626 96.6992C85.3733 96.2085 85.272 95.7765 85.0586 95.4032C84.8453 95.0298 84.552 94.7365 84.1786 94.5232C83.816 94.3098 83.3946 94.2032 82.9146 94.2032C82.424 94.2032 81.992 94.3098 81.6186 94.5232C81.256 94.7365 80.968 95.0352 80.7546 95.4192C80.552 95.7925 80.4506 96.2352 80.4506 96.7472V97.0672C80.4506 97.5792 80.568 98.0325 80.8026 98.4272C81.0373 98.8218 81.368 99.1258 81.7946 99.3392C82.2213 99.5525 82.712 99.6592 83.2666 99.6592C83.7466 99.6592 84.1786 99.5845 84.5626 99.4352C84.9466 99.2858 85.288 99.0512 85.5866 98.7312L86.6586 99.9632C86.2746 100.411 85.7893 100.758 85.2026 101.003C84.6266 101.238 83.9653 101.355 83.2186 101.355ZM89.1558 101.243V92.6992H91.0598V95.0512L90.8358 94.3632C91.0918 93.7872 91.4918 93.3498 92.0358 93.0512C92.5904 92.7525 93.2784 92.6032 94.0998 92.6032V94.5072C94.0144 94.4858 93.9344 94.4752 93.8598 94.4752C93.7851 94.4645 93.7104 94.4592 93.6358 94.4592C92.8784 94.4592 92.2758 94.6832 91.8278 95.1312C91.3798 95.5685 91.1558 96.2245 91.1558 97.0992V101.243H89.1558Z" fill="#1F2626"/>
<path d="M13.408 77.952H18.992V79.712H13.408V77.952ZM13.584 84H11.504V72.8H19.68V74.544H13.584V84ZM21.3433 84V75.456H23.2473V77.808L23.0233 77.12C23.2793 76.544 23.6793 76.1067 24.2233 75.808C24.7779 75.5093 25.4659 75.36 26.2873 75.36V77.264C26.2019 77.2427 26.1219 77.232 26.0473 77.232C25.9726 77.2213 25.8979 77.216 25.8233 77.216C25.0659 77.216 24.4633 77.44 24.0153 77.888C23.5673 78.3253 23.3433 78.9813 23.3433 79.856V84H21.3433ZM31.7458 84.112C30.8711 84.112 30.0924 83.9253 29.4098 83.552C28.7271 83.168 28.1884 82.6453 27.7938 81.984C27.3991 81.3227 27.2018 80.5707 27.2018 79.728C27.2018 78.8747 27.3991 78.1227 27.7938 77.472C28.1884 76.8107 28.7271 76.2933 29.4098 75.92C30.0924 75.5467 30.8711 75.36 31.7458 75.36C32.6311 75.36 33.4151 75.5467 34.0978 75.92C34.7911 76.2933 35.3298 76.8053 35.7138 77.456C36.1084 78.1067 36.3058 78.864 36.3058 79.728C36.3058 80.5707 36.1084 81.3227 35.7138 81.984C35.3298 82.6453 34.7911 83.168 34.0978 83.552C33.4151 83.9253 32.6311 84.112 31.7458 84.112ZM31.7458 82.4C32.2364 82.4 32.6738 82.2933 33.0578 82.08C33.4418 81.8667 33.7404 81.5573 33.9538 81.152C34.1778 80.7467 34.2898 80.272 34.2898 79.728C34.2898 79.1733 34.1778 78.6987 33.9538 78.304C33.7404 77.8987 33.4418 77.5893 33.0578 77.376C32.6738 77.1627 32.2418 77.056 31.7618 77.056C31.2711 77.056 30.8338 77.1627 30.4498 77.376C30.0764 77.5893 29.7778 77.8987 29.5538 78.304C29.3298 78.6987 29.2178 79.1733 29.2178 79.728C29.2178 80.272 29.3298 80.7467 29.5538 81.152C29.7778 81.5573 30.0764 81.8667 30.4498 82.08C30.8338 82.2933 31.2658 82.4 31.7458 82.4ZM43.0663 75.36C43.7489 75.36 44.3569 75.4933 44.8903 75.76C45.4343 76.0267 45.8609 76.4373 46.1703 76.992C46.4796 77.536 46.6343 78.24 46.6343 79.104V84H44.6343V79.36C44.6343 78.6027 44.4529 78.0373 44.0903 77.664C43.7383 77.2907 43.2423 77.104 42.6023 77.104C42.1329 77.104 41.7169 77.2 41.3543 77.392C40.9916 77.584 40.7089 77.872 40.5063 78.256C40.3143 78.6293 40.2183 79.104 40.2183 79.68V84H38.2183V75.456H40.1223V77.76L39.7863 77.056C40.0849 76.512 40.5169 76.096 41.0823 75.808C41.6583 75.5093 42.3196 75.36 43.0663 75.36ZM52.3874 84.112C51.4487 84.112 50.7234 83.872 50.2114 83.392C49.6994 82.9013 49.4434 82.1813 49.4434 81.232V73.568H51.4434V81.184C51.4434 81.5893 51.5447 81.904 51.7474 82.128C51.9607 82.352 52.254 82.464 52.6274 82.464C53.0754 82.464 53.4487 82.3467 53.7474 82.112L54.3074 83.536C54.0727 83.728 53.7847 83.872 53.4434 83.968C53.102 84.064 52.75 84.112 52.3874 84.112ZM48.0354 77.12V75.52H53.7314V77.12H48.0354ZM55.3644 80.384V78.72H59.7644V80.384H55.3644ZM64.0646 77.456H69.6326V79.168H64.0646V77.456ZM64.2246 82.256H70.5446V84H62.1446V72.8H70.3206V74.544H64.2246V82.256ZM77.5194 75.36C78.202 75.36 78.81 75.4933 79.3434 75.76C79.8874 76.0267 80.314 76.4373 80.6234 76.992C80.9327 77.536 81.0874 78.24 81.0874 79.104V84H79.0874V79.36C79.0874 78.6027 78.906 78.0373 78.5434 77.664C78.1914 77.2907 77.6954 77.104 77.0554 77.104C76.586 77.104 76.17 77.2 75.8074 77.392C75.4447 77.584 75.162 77.872 74.9594 78.256C74.7674 78.6293 74.6714 79.104 74.6714 79.68V84H72.6714V75.456H74.5754V77.76L74.2394 77.056C74.538 76.512 74.97 76.096 75.5354 75.808C76.1114 75.5093 76.7727 75.36 77.5194 75.36ZM87.2561 84.112C86.4348 84.112 85.6935 83.9307 85.0321 83.568C84.3815 83.1947 83.8695 82.6827 83.4961 82.032C83.1228 81.3813 82.9361 80.6133 82.9361 79.728C82.9361 78.8427 83.1228 78.0747 83.4961 77.424C83.8695 76.7733 84.3815 76.2667 85.0321 75.904C85.6935 75.5413 86.4348 75.36 87.2561 75.36C87.9708 75.36 88.6108 75.52 89.1761 75.84C89.7415 76.1493 90.1895 76.624 90.5201 77.264C90.8508 77.904 91.0161 78.7253 91.0161 79.728C91.0161 80.72 90.8561 81.5413 90.5361 82.192C90.2161 82.832 89.7735 83.312 89.2081 83.632C88.6428 83.952 87.9921 84.112 87.2561 84.112ZM87.4961 82.4C87.9761 82.4 88.4028 82.2933 88.7761 82.08C89.1601 81.8667 89.4641 81.5573 89.6881 81.152C89.9228 80.7467 90.0401 80.272 90.0401 79.728C90.0401 79.1733 89.9228 78.6987 89.6881 78.304C89.4641 77.8987 89.1601 77.5893 88.7761 77.376C88.4028 77.1627 87.9761 77.056 87.4961 77.056C87.0161 77.056 86.5841 77.1627 86.2001 77.376C85.8268 77.5893 85.5228 77.8987 85.2881 78.304C85.0641 78.6987 84.9521 79.1733 84.9521 79.728C84.9521 80.272 85.0641 80.7467 85.2881 81.152C85.5228 81.5573 85.8268 81.8667 86.2001 82.08C86.5841 82.2933 87.0161 82.4 87.4961 82.4ZM90.0881 84V81.984L90.1681 79.712L90.0081 77.44V72.128H91.9921V84H90.0881Z" fill="#1F2626"/>
</svg>
